<?xml version="1.0" standalone="no"?>
<!DOCTYPE svg PUBLIC "-//W3C//DTD SVG 20010904//EN"
 "http://www.w3.org/TR/2001/REC-SVG-20010904/DTD/svg10.dtd">
<svg version="1.0" xmlns="http://www.w3.org/2000/svg"
 width="662.000000pt" height="662.000000pt" viewBox="0 0 662.000000 662.000000"
 preserveAspectRatio="xMidYMid meet">

<g transform="translate(0.000000,662.000000) scale(0.100000,-0.100000)"
fill="#FFFFFF" stroke="none">
<path d="M2785 5149 c-291 -176 -551 -333 -577 -347 l-48 -27 0 -722 c0 -398
-1 -726 -1 -730 -1 -5 85 -60 192 -125 l194 -116 3 723 2 723 78 50 c42 27
138 85 212 129 74 44 211 126 304 183 142 85 172 100 190 92 12 -5 161 -94
331 -197 171 -103 334 -202 362 -219 l53 -31 0 -254 c0 -224 2 -252 15 -247
14 5 317 178 366 209 18 11 19 26 19 272 l0 260 -292 175 c-161 96 -360 216
-443 266 -221 134 -424 254 -427 253 -2 0 -241 -144 -533 -320z"/>
<path d="M2950 4019 l1 -234 176 -105 c97 -58 181 -106 187 -108 7 -1 92 46
191 106 l180 109 3 232 c2 220 1 233 -15 227 -10 -4 -93 -52 -185 -107 -92
-54 -169 -99 -172 -99 -3 0 -80 46 -173 101 -92 56 -174 104 -180 106 -10 4
-13 -46 -13 -228z"/>
<path d="M4440 3765 c-19 -12 -106 -64 -193 -115 -88 -52 -161 -98 -163 -104
-2 -7 -3 -114 -2 -239 l3 -228 190 112 c105 61 193 114 198 118 4 4 6 113 5
243 l-3 235 -35 -22z"/>
<path d="M2951 3073 l0 -238 151 -90 c82 -49 164 -99 182 -109 l32 -19 187
112 187 112 0 236 c0 184 -3 234 -13 230 -6 -2 -88 -50 -181 -106 -93 -55
-173 -101 -178 -101 -4 0 -86 47 -182 105 -95 58 -176 105 -180 105 -3 0 -6
-107 -5 -237z"/>
<path d="M1510 1925 l0 -65 70 0 70 0 0 65 0 65 -70 0 -70 0 0 -65z"/>
<path d="M3170 1545 l0 -445 65 0 65 0 0 445 0 445 -65 0 -65 0 0 -445z"/>
<path d="M4320 1545 l0 -445 63 0 64 0 2 445 2 445 -65 0 -66 0 0 -445z"/>
<path d="M708 1964 c-5 -4 -8 -200 -8 -436 l0 -428 70 0 70 0 0 149 0 149 158
5 c86 2 174 9 194 16 55 17 118 70 153 126 28 45 30 56 30 139 0 69 -5 99 -18
124 -30 56 -91 108 -153 133 -53 20 -80 23 -274 27 -118 2 -218 1 -222 -4z
m452 -140 c109 -63 109 -215 0 -278 -30 -18 -56 -21 -177 -24 l-143 -4 0 167
0 167 143 -4 c121 -3 147 -6 177 -24z"/>
<path d="M3498 1536 l-3 -436 68 0 67 0 0 150 0 150 144 0 c222 0 315 38 370
153 58 120 41 236 -48 323 -81 79 -111 86 -373 92 l-223 4 -2 -436z m460 286
c106 -56 104 -214 -3 -279 -25 -15 -56 -19 -177 -21 l-148 -4 0 167 0 167 143
-4 c125 -3 147 -6 185 -26z"/>
<path d="M2594 1739 c-164 -63 -249 -287 -174 -457 60 -136 205 -216 356 -197
58 7 179 62 208 94 18 20 17 21 -14 61 -19 24 -36 37 -43 33 -7 -4 -29 -19
-50 -34 -77 -56 -188 -57 -268 -4 -57 37 -101 147 -61 151 6 1 118 2 248 3
l237 1 -6 63 c-14 154 -94 263 -217 297 -57 16 -160 11 -216 -11z m207 -104
c39 -20 79 -76 86 -119 l6 -36 -176 0 c-105 0 -178 4 -182 10 -3 5 3 29 13 53
21 46 72 92 119 107 35 11 96 4 134 -15z"/>
<path d="M4761 1741 c-56 -20 -98 -46 -115 -73 -7 -12 -5 -26 10 -53 10 -20
21 -38 24 -40 3 -2 26 9 50 24 88 54 175 66 240 33 41 -20 80 -75 80 -111 l0
-26 -123 -3 c-154 -3 -216 -21 -273 -77 -96 -96 -75 -239 45 -299 96 -49 203
-43 305 19 l56 34 0 -35 0 -34 66 0 67 0 -6 228 c-3 125 -11 243 -17 263 -16
58 -64 114 -117 140 -66 33 -213 38 -292 10z m289 -400 c0 -45 -5 -65 -22 -86
-30 -38 -93 -65 -155 -65 -95 0 -143 34 -143 100 0 78 59 107 223 109 l97 1 0
-59z"/>
<path d="M1510 1425 l0 -325 65 0 65 0 0 325 0 325 -65 0 -65 0 0 -325z"/>
<path d="M1760 1744 c0 -3 48 -74 106 -157 l105 -151 -38 -55 c-21 -31 -74
-107 -117 -168 l-78 -113 75 0 74 0 79 115 c43 63 83 114 88 112 6 -2 44 -54
85 -115 l75 -112 73 0 73 0 -17 28 c-10 15 -62 91 -116 170 -93 135 -98 145
-84 165 9 12 58 81 110 152 l95 130 -70 3 c-80 3 -65 15 -158 -120 -34 -49
-64 -88 -68 -88 -4 0 -38 47 -76 105 l-68 105 -74 0 c-41 0 -74 -3 -74 -6z"/>
<path d="M5290 1678 c15 -40 56 -138 90 -218 33 -80 82 -196 107 -258 l46
-113 -19 -40 c-26 -59 -69 -92 -113 -86 -20 2 -44 7 -54 11 -14 7 -21 -1 -38
-40 -20 -45 -20 -48 -4 -60 26 -19 110 -35 147 -28 52 10 105 44 131 83 13 20
44 86 70 146 51 123 267 665 267 672 0 2 -29 3 -65 1 l-66 -3 -45 -110 c-24
-60 -68 -172 -96 -248 -28 -76 -52 -136 -53 -135 -2 2 -32 80 -68 173 -37 94
-79 204 -96 245 l-29 75 -71 3 -70 3 29 -73z"/>
</g>
</svg>
