<?xml version="1.0" standalone="no"?>
<!DOCTYPE svg PUBLIC "-//W3C//DTD SVG 20010904//EN"
 "http://www.w3.org/TR/2001/REC-SVG-20010904/DTD/svg10.dtd">
<svg version="1.0" xmlns="http://www.w3.org/2000/svg"
 width="1194.000000pt" height="397.000000pt" viewBox="0 0 1194.000000 397.000000"
 preserveAspectRatio="xMidYMid meet">

<g transform="translate(0.000000,397.000000) scale(0.100000,-0.100000)"
fill="#333" stroke="none">
<path d="M817 3893 c-4 -3 -7 -87 -7 -185 l0 -178 184 0 183 0 7 -61 c8 -78 8
-247 0 -276 -6 -23 -8 -23 -185 -23 l-179 0 -1 -165 c-1 -91 -2 -171 -3 -177
-1 -10 -46 -14 -183 -16 l-183 -2 0 180 0 180 -185 0 -185 0 0 -180 0 -180
185 0 185 0 0 -180 0 -180 -185 0 -185 0 0 -185 0 -185 185 0 185 0 0 -180 0
-180 185 0 185 0 0 185 0 185 -185 0 -185 0 0 175 0 175 183 2 182 3 3 183 2
182 185 0 185 0 0 -185 0 -185 185 0 185 0 2 183 3 182 183 3 182 2 0 -185 0
-185 185 0 185 0 0 133 c0 72 3 156 6 185 l7 52 178 0 179 0 2 -182 3 -183
183 -3 182 -2 0 185 0 185 -180 0 -180 0 0 143 c0 78 -3 159 -6 179 l-7 38
189 2 189 3 3 178 c1 97 -1 177 -5 177 -5 0 -89 1 -188 2 l-180 1 -3 -181 -2
-182 -180 0 -180 0 -2 183 -3 182 -185 0 -185 0 -3 -183 -2 -182 -185 0 -185
0 0 180 0 180 -185 0 -185 0 0 185 0 185 -183 0 c-101 0 -187 -3 -190 -7z
m741 -900 l-3 -178 -182 -3 -183 -2 0 180 0 180 185 0 185 0 -2 -177z m742 -3
l0 -180 -180 0 -180 0 -1 150 c-1 83 -2 160 -3 173 -1 12 -1 25 1 30 2 4 85 7
184 7 l179 0 0 -180z"/>
<path d="M2926 2235 c-13 -13 -16 -39 -16 -141 0 -69 5 -134 10 -145 10 -17
23 -19 164 -19 195 0 186 -8 186 162 0 104 -3 128 -17 139 -11 10 -57 15 -163
17 -126 3 -150 1 -164 -13z"/>
<path d="M6294 2239 c-10 -16 -6 -1731 4 -1741 5 -5 78 -7 163 -6 l154 3 6
115 c8 151 11 1604 3 1624 -5 14 -29 16 -164 16 -108 0 -161 -4 -166 -11z"/>
<path d="M8554 2237 c-2 -7 -3 -357 -2 -777 l3 -765 28 -57 c33 -67 91 -120
156 -143 66 -24 233 -32 249 -12 12 14 35 244 26 259 -2 3 -22 9 -43 13 -81
14 -75 -42 -81 769 l-5 721 -163 3 c-128 2 -164 0 -168 -11z"/>
<path d="M1342 2118 c-9 -9 -12 -201 -12 -804 0 -436 3 -799 6 -808 5 -14 29
-16 164 -16 88 0 161 3 163 7 3 5 8 122 12 261 l8 252 262 0 c191 0 284 4 341
15 205 39 340 163 391 358 22 86 22 290 -1 376 -52 194 -179 314 -375 356 -95
20 -939 23 -959 3z m883 -319 c35 -18 59 -39 80 -74 28 -46 30 -54 30 -154 0
-91 -3 -112 -23 -148 -26 -50 -79 -88 -142 -102 -25 -6 -147 -11 -272 -11
l-228 0 0 103 c0 56 3 173 7 260 l6 158 246 -3 c242 -3 248 -3 296 -29z"/>
<path d="M6977 2118 c-16 -12 -17 -70 -15 -818 l3 -805 170 0 170 0 3 258 2
257 263 0 c178 1 287 5 340 15 268 47 416 245 417 556 0 199 -63 344 -192 441
-132 100 -187 108 -716 108 -327 0 -432 -3 -445 -12z m873 -312 c91 -48 124
-108 125 -226 0 -103 -21 -166 -71 -209 -59 -52 -111 -61 -366 -61 l-228 0 0
261 0 260 253 -3 c223 -3 256 -5 287 -22z"/>
<path d="M5315 1820 c-264 -42 -412 -171 -459 -402 -22 -106 -22 -485 -1 -577
42 -177 159 -292 355 -348 55 -15 101 -18 290 -18 201 1 235 3 320 24 115 28
170 49 170 65 0 31 -51 230 -60 236 -6 3 -41 -2 -79 -11 -99 -25 -301 -43
-399 -35 -183 15 -272 88 -272 221 l0 45 419 0 c377 0 420 2 432 17 11 12 14
53 13 172 -2 237 -42 361 -153 471 -61 61 -133 101 -226 125 -74 19 -270 27
-350 15z m238 -291 c80 -22 139 -101 153 -206 l7 -53 -272 0 -272 0 7 48 c8
62 40 134 69 162 54 51 212 76 308 49z"/>
<path d="M9700 1824 c-168 -20 -216 -28 -291 -45 -127 -30 -123 -22 -93 -158
13 -63 29 -120 35 -127 8 -9 21 -9 64 2 90 24 245 44 337 44 200 0 283 -51
289 -180 l3 -55 -254 0 c-275 -1 -306 -5 -417 -56 -76 -36 -143 -108 -174
-187 -30 -76 -33 -251 -6 -328 40 -115 118 -191 242 -235 83 -30 319 -38 418
-15 72 17 141 48 197 90 l34 26 28 -55 28 -55 125 0 125 0 0 458 c0 424 -1
465 -20 536 -47 185 -148 281 -337 321 -70 15 -271 26 -333 19z m348 -881 l-3
-127 -45 -23 c-111 -56 -306 -73 -394 -35 -95 42 -126 172 -61 250 48 57 70
62 298 62 l208 0 -3 -127z"/>
<path d="M3642 1792 c-125 -2 -164 -6 -168 -16 -3 -7 19 -51 49 -97 137 -215
318 -521 314 -532 -2 -7 -84 -138 -182 -292 -222 -349 -210 -328 -202 -348 6
-15 27 -17 181 -17 l174 0 105 173 c57 94 119 198 137 230 17 31 35 57 38 57
4 -1 68 -103 143 -228 l135 -227 181 -3 c158 -2 181 0 187 14 8 20 14 10 -199
349 -99 160 -184 295 -188 301 -3 6 21 53 55 105 201 310 319 503 316 518 -2
10 -13 16 -31 15 -15 0 -94 -1 -177 -2 l-149 -2 -34 -52 c-18 -29 -76 -126
-128 -215 -52 -89 -97 -162 -100 -163 -3 0 -60 97 -128 215 -67 118 -126 215
-131 215 -5 0 -14 1 -22 3 -7 1 -86 1 -176 -1z"/>
<path d="M10671 1786 c-9 -11 -11 -119 -9 -418 3 -391 4 -405 26 -458 70 -175
188 -238 459 -247 l153 -6 -46 -89 c-56 -107 -115 -172 -175 -190 -45 -13
-266 -16 -314 -4 -37 9 -45 -22 -45 -169 l0 -124 48 -8 c81 -13 362 -9 422 6
135 34 249 128 308 253 148 313 161 337 215 395 30 33 66 80 80 104 53 90 57
129 57 554 0 291 -3 394 -12 403 -8 8 -58 12 -158 12 -100 0 -150 -4 -158 -12
-9 -9 -12 -108 -12 -385 0 -393 -3 -420 -45 -437 -9 -3 -91 -6 -183 -6 -146 0
-171 2 -207 20 -70 34 -70 31 -73 440 -2 270 -6 366 -15 372 -7 4 -78 8 -158
8 -114 0 -149 -3 -158 -14z"/>
<path d="M2925 1778 c-3 -7 -4 -299 -3 -648 l3 -635 165 0 165 0 0 645 0 645
-163 3 c-124 2 -164 0 -167 -10z"/>
</g>
</svg>
